<mxfile host="app.diagrams.net" agent="Mozilla/5.0 (Macintosh; Intel Mac OS X 10_15_7) AppleWebKit/605.1.15 (KHTML, like Gecko) Version/18.2 Safari/605.1.15" version="25.0.3">
  <diagram name="Page-1" id="XJ0-B6-bFenvaR_kDwjN">
    <mxGraphModel dx="2532" dy="964" grid="1" gridSize="10" guides="1" tooltips="1" connect="1" arrows="1" fold="1" page="1" pageScale="1" pageWidth="1169" pageHeight="827" math="0" shadow="0">
      <root>
        <mxCell id="0" />
        <mxCell id="1" parent="0" />
        <mxCell id="Nw93bE2P9whaHvDUfIau-1" value="users" style="shape=table;startSize=30;container=1;collapsible=1;childLayout=tableLayout;fixedRows=1;rowLines=0;fontStyle=1;align=center;resizeLast=1;html=1;" parent="1" vertex="1">
          <mxGeometry x="-740" y="190" width="310" height="200" as="geometry" />
        </mxCell>
        <mxCell id="Nw93bE2P9whaHvDUfIau-2" value="" style="shape=tableRow;horizontal=0;startSize=0;swimlaneHead=0;swimlaneBody=0;fillColor=none;collapsible=0;dropTarget=0;points=[[0,0.5],[1,0.5]];portConstraint=eastwest;top=0;left=0;right=0;bottom=1;" parent="Nw93bE2P9whaHvDUfIau-1" vertex="1">
          <mxGeometry y="30" width="310" height="30" as="geometry" />
        </mxCell>
        <mxCell id="Nw93bE2P9whaHvDUfIau-3" value="PK" style="shape=partialRectangle;connectable=0;fillColor=none;top=0;left=0;bottom=0;right=0;fontStyle=1;overflow=hidden;whiteSpace=wrap;html=1;" parent="Nw93bE2P9whaHvDUfIau-2" vertex="1">
          <mxGeometry width="30" height="30" as="geometry">
            <mxRectangle width="30" height="30" as="alternateBounds" />
          </mxGeometry>
        </mxCell>
        <mxCell id="Nw93bE2P9whaHvDUfIau-4" value="id INT, AI" style="shape=partialRectangle;connectable=0;fillColor=none;top=0;left=0;bottom=0;right=0;align=left;spacingLeft=6;fontStyle=5;overflow=hidden;whiteSpace=wrap;html=1;" parent="Nw93bE2P9whaHvDUfIau-2" vertex="1">
          <mxGeometry x="30" width="280" height="30" as="geometry">
            <mxRectangle width="280" height="30" as="alternateBounds" />
          </mxGeometry>
        </mxCell>
        <mxCell id="Nw93bE2P9whaHvDUfIau-5" value="" style="shape=tableRow;horizontal=0;startSize=0;swimlaneHead=0;swimlaneBody=0;fillColor=none;collapsible=0;dropTarget=0;points=[[0,0.5],[1,0.5]];portConstraint=eastwest;top=0;left=0;right=0;bottom=0;" parent="Nw93bE2P9whaHvDUfIau-1" vertex="1">
          <mxGeometry y="60" width="310" height="20" as="geometry" />
        </mxCell>
        <mxCell id="Nw93bE2P9whaHvDUfIau-6" value="" style="shape=partialRectangle;connectable=0;fillColor=none;top=0;left=0;bottom=0;right=0;editable=1;overflow=hidden;whiteSpace=wrap;html=1;" parent="Nw93bE2P9whaHvDUfIau-5" vertex="1">
          <mxGeometry width="30" height="20" as="geometry">
            <mxRectangle width="30" height="20" as="alternateBounds" />
          </mxGeometry>
        </mxCell>
        <mxCell id="Nw93bE2P9whaHvDUfIau-7" value="first_name VARCHAR(100), &amp;nbsp;NOT NULL" style="shape=partialRectangle;connectable=0;fillColor=none;top=0;left=0;bottom=0;right=0;align=left;spacingLeft=6;overflow=hidden;whiteSpace=wrap;html=1;" parent="Nw93bE2P9whaHvDUfIau-5" vertex="1">
          <mxGeometry x="30" width="280" height="20" as="geometry">
            <mxRectangle width="280" height="20" as="alternateBounds" />
          </mxGeometry>
        </mxCell>
        <mxCell id="Nw93bE2P9whaHvDUfIau-8" value="" style="shape=tableRow;horizontal=0;startSize=0;swimlaneHead=0;swimlaneBody=0;fillColor=none;collapsible=0;dropTarget=0;points=[[0,0.5],[1,0.5]];portConstraint=eastwest;top=0;left=0;right=0;bottom=0;" parent="Nw93bE2P9whaHvDUfIau-1" vertex="1">
          <mxGeometry y="80" width="310" height="30" as="geometry" />
        </mxCell>
        <mxCell id="Nw93bE2P9whaHvDUfIau-9" value="" style="shape=partialRectangle;connectable=0;fillColor=none;top=0;left=0;bottom=0;right=0;editable=1;overflow=hidden;whiteSpace=wrap;html=1;" parent="Nw93bE2P9whaHvDUfIau-8" vertex="1">
          <mxGeometry width="30" height="30" as="geometry">
            <mxRectangle width="30" height="30" as="alternateBounds" />
          </mxGeometry>
        </mxCell>
        <mxCell id="Nw93bE2P9whaHvDUfIau-10" value="last_name VARCHAR(100)&amp;nbsp;NOT NULL" style="shape=partialRectangle;connectable=0;fillColor=none;top=0;left=0;bottom=0;right=0;align=left;spacingLeft=6;overflow=hidden;whiteSpace=wrap;html=1;" parent="Nw93bE2P9whaHvDUfIau-8" vertex="1">
          <mxGeometry x="30" width="280" height="30" as="geometry">
            <mxRectangle width="280" height="30" as="alternateBounds" />
          </mxGeometry>
        </mxCell>
        <mxCell id="Nw93bE2P9whaHvDUfIau-11" value="" style="shape=tableRow;horizontal=0;startSize=0;swimlaneHead=0;swimlaneBody=0;fillColor=none;collapsible=0;dropTarget=0;points=[[0,0.5],[1,0.5]];portConstraint=eastwest;top=0;left=0;right=0;bottom=0;" parent="Nw93bE2P9whaHvDUfIau-1" vertex="1">
          <mxGeometry y="110" width="310" height="30" as="geometry" />
        </mxCell>
        <mxCell id="Nw93bE2P9whaHvDUfIau-12" value="" style="shape=partialRectangle;connectable=0;fillColor=none;top=0;left=0;bottom=0;right=0;editable=1;overflow=hidden;whiteSpace=wrap;html=1;" parent="Nw93bE2P9whaHvDUfIau-11" vertex="1">
          <mxGeometry width="30" height="30" as="geometry">
            <mxRectangle width="30" height="30" as="alternateBounds" />
          </mxGeometry>
        </mxCell>
        <mxCell id="Nw93bE2P9whaHvDUfIau-13" value="email VARCHAR(100), NOT NULL, UNIQUE" style="shape=partialRectangle;connectable=0;fillColor=none;top=0;left=0;bottom=0;right=0;align=left;spacingLeft=6;overflow=hidden;whiteSpace=wrap;html=1;" parent="Nw93bE2P9whaHvDUfIau-11" vertex="1">
          <mxGeometry x="30" width="280" height="30" as="geometry">
            <mxRectangle width="280" height="30" as="alternateBounds" />
          </mxGeometry>
        </mxCell>
        <mxCell id="Nw93bE2P9whaHvDUfIau-14" value="" style="shape=tableRow;horizontal=0;startSize=0;swimlaneHead=0;swimlaneBody=0;fillColor=none;collapsible=0;dropTarget=0;points=[[0,0.5],[1,0.5]];portConstraint=eastwest;top=0;left=0;right=0;bottom=0;" parent="Nw93bE2P9whaHvDUfIau-1" vertex="1">
          <mxGeometry y="140" width="310" height="30" as="geometry" />
        </mxCell>
        <mxCell id="Nw93bE2P9whaHvDUfIau-15" value="" style="shape=partialRectangle;connectable=0;fillColor=none;top=0;left=0;bottom=0;right=0;editable=1;overflow=hidden;whiteSpace=wrap;html=1;" parent="Nw93bE2P9whaHvDUfIau-14" vertex="1">
          <mxGeometry width="30" height="30" as="geometry">
            <mxRectangle width="30" height="30" as="alternateBounds" />
          </mxGeometry>
        </mxCell>
        <mxCell id="Nw93bE2P9whaHvDUfIau-16" value="password_hash TEXT,&amp;nbsp;&amp;nbsp;NOT NULL" style="shape=partialRectangle;connectable=0;fillColor=none;top=0;left=0;bottom=0;right=0;align=left;spacingLeft=6;overflow=hidden;whiteSpace=wrap;html=1;" parent="Nw93bE2P9whaHvDUfIau-14" vertex="1">
          <mxGeometry x="30" width="280" height="30" as="geometry">
            <mxRectangle width="280" height="30" as="alternateBounds" />
          </mxGeometry>
        </mxCell>
        <mxCell id="Nw93bE2P9whaHvDUfIau-17" value="" style="shape=tableRow;horizontal=0;startSize=0;swimlaneHead=0;swimlaneBody=0;fillColor=none;collapsible=0;dropTarget=0;points=[[0,0.5],[1,0.5]];portConstraint=eastwest;top=0;left=0;right=0;bottom=0;" parent="Nw93bE2P9whaHvDUfIau-1" vertex="1">
          <mxGeometry y="170" width="310" height="30" as="geometry" />
        </mxCell>
        <mxCell id="Nw93bE2P9whaHvDUfIau-18" value="" style="shape=partialRectangle;connectable=0;fillColor=none;top=0;left=0;bottom=0;right=0;editable=1;overflow=hidden;whiteSpace=wrap;html=1;" parent="Nw93bE2P9whaHvDUfIau-17" vertex="1">
          <mxGeometry width="30" height="30" as="geometry">
            <mxRectangle width="30" height="30" as="alternateBounds" />
          </mxGeometry>
        </mxCell>
        <mxCell id="Nw93bE2P9whaHvDUfIau-19" value="deposit_amount FLOAT" style="shape=partialRectangle;connectable=0;fillColor=none;top=0;left=0;bottom=0;right=0;align=left;spacingLeft=6;overflow=hidden;whiteSpace=wrap;html=1;" parent="Nw93bE2P9whaHvDUfIau-17" vertex="1">
          <mxGeometry x="30" width="280" height="30" as="geometry">
            <mxRectangle width="280" height="30" as="alternateBounds" />
          </mxGeometry>
        </mxCell>
        <mxCell id="Nw93bE2P9whaHvDUfIau-20" value="rents" style="shape=table;startSize=30;container=1;collapsible=1;childLayout=tableLayout;fixedRows=1;rowLines=0;fontStyle=1;align=center;resizeLast=1;html=1;" parent="1" vertex="1">
          <mxGeometry x="-280" y="190" width="310" height="230" as="geometry" />
        </mxCell>
        <mxCell id="Nw93bE2P9whaHvDUfIau-21" value="" style="shape=tableRow;horizontal=0;startSize=0;swimlaneHead=0;swimlaneBody=0;fillColor=none;collapsible=0;dropTarget=0;points=[[0,0.5],[1,0.5]];portConstraint=eastwest;top=0;left=0;right=0;bottom=1;" parent="Nw93bE2P9whaHvDUfIau-20" vertex="1">
          <mxGeometry y="30" width="310" height="30" as="geometry" />
        </mxCell>
        <mxCell id="Nw93bE2P9whaHvDUfIau-22" value="PK" style="shape=partialRectangle;connectable=0;fillColor=none;top=0;left=0;bottom=0;right=0;fontStyle=1;overflow=hidden;whiteSpace=wrap;html=1;" parent="Nw93bE2P9whaHvDUfIau-21" vertex="1">
          <mxGeometry width="30" height="30" as="geometry">
            <mxRectangle width="30" height="30" as="alternateBounds" />
          </mxGeometry>
        </mxCell>
        <mxCell id="Nw93bE2P9whaHvDUfIau-23" value="id INT, AI" style="shape=partialRectangle;connectable=0;fillColor=none;top=0;left=0;bottom=0;right=0;align=left;spacingLeft=6;fontStyle=5;overflow=hidden;whiteSpace=wrap;html=1;" parent="Nw93bE2P9whaHvDUfIau-21" vertex="1">
          <mxGeometry x="30" width="280" height="30" as="geometry">
            <mxRectangle width="280" height="30" as="alternateBounds" />
          </mxGeometry>
        </mxCell>
        <mxCell id="Nw93bE2P9whaHvDUfIau-24" value="" style="shape=tableRow;horizontal=0;startSize=0;swimlaneHead=0;swimlaneBody=0;fillColor=none;collapsible=0;dropTarget=0;points=[[0,0.5],[1,0.5]];portConstraint=eastwest;top=0;left=0;right=0;bottom=0;" parent="Nw93bE2P9whaHvDUfIau-20" vertex="1">
          <mxGeometry y="60" width="310" height="20" as="geometry" />
        </mxCell>
        <mxCell id="Nw93bE2P9whaHvDUfIau-25" value="" style="shape=partialRectangle;connectable=0;fillColor=none;top=0;left=0;bottom=0;right=0;editable=1;overflow=hidden;whiteSpace=wrap;html=1;" parent="Nw93bE2P9whaHvDUfIau-24" vertex="1">
          <mxGeometry width="30" height="20" as="geometry">
            <mxRectangle width="30" height="20" as="alternateBounds" />
          </mxGeometry>
        </mxCell>
        <mxCell id="Nw93bE2P9whaHvDUfIau-26" value="user_id INT, FK" style="shape=partialRectangle;connectable=0;fillColor=none;top=0;left=0;bottom=0;right=0;align=left;spacingLeft=6;overflow=hidden;whiteSpace=wrap;html=1;" parent="Nw93bE2P9whaHvDUfIau-24" vertex="1">
          <mxGeometry x="30" width="280" height="20" as="geometry">
            <mxRectangle width="280" height="20" as="alternateBounds" />
          </mxGeometry>
        </mxCell>
        <mxCell id="Nw93bE2P9whaHvDUfIau-27" value="" style="shape=tableRow;horizontal=0;startSize=0;swimlaneHead=0;swimlaneBody=0;fillColor=none;collapsible=0;dropTarget=0;points=[[0,0.5],[1,0.5]];portConstraint=eastwest;top=0;left=0;right=0;bottom=0;" parent="Nw93bE2P9whaHvDUfIau-20" vertex="1">
          <mxGeometry y="80" width="310" height="30" as="geometry" />
        </mxCell>
        <mxCell id="Nw93bE2P9whaHvDUfIau-28" value="" style="shape=partialRectangle;connectable=0;fillColor=none;top=0;left=0;bottom=0;right=0;editable=1;overflow=hidden;whiteSpace=wrap;html=1;" parent="Nw93bE2P9whaHvDUfIau-27" vertex="1">
          <mxGeometry width="30" height="30" as="geometry">
            <mxRectangle width="30" height="30" as="alternateBounds" />
          </mxGeometry>
        </mxCell>
        <mxCell id="Nw93bE2P9whaHvDUfIau-29" value="book_copy_id INT, FK" style="shape=partialRectangle;connectable=0;fillColor=none;top=0;left=0;bottom=0;right=0;align=left;spacingLeft=6;overflow=hidden;whiteSpace=wrap;html=1;" parent="Nw93bE2P9whaHvDUfIau-27" vertex="1">
          <mxGeometry x="30" width="280" height="30" as="geometry">
            <mxRectangle width="280" height="30" as="alternateBounds" />
          </mxGeometry>
        </mxCell>
        <mxCell id="Nw93bE2P9whaHvDUfIau-30" value="" style="shape=tableRow;horizontal=0;startSize=0;swimlaneHead=0;swimlaneBody=0;fillColor=none;collapsible=0;dropTarget=0;points=[[0,0.5],[1,0.5]];portConstraint=eastwest;top=0;left=0;right=0;bottom=0;" parent="Nw93bE2P9whaHvDUfIau-20" vertex="1">
          <mxGeometry y="110" width="310" height="30" as="geometry" />
        </mxCell>
        <mxCell id="Nw93bE2P9whaHvDUfIau-31" value="" style="shape=partialRectangle;connectable=0;fillColor=none;top=0;left=0;bottom=0;right=0;editable=1;overflow=hidden;whiteSpace=wrap;html=1;" parent="Nw93bE2P9whaHvDUfIau-30" vertex="1">
          <mxGeometry width="30" height="30" as="geometry">
            <mxRectangle width="30" height="30" as="alternateBounds" />
          </mxGeometry>
        </mxCell>
        <mxCell id="Nw93bE2P9whaHvDUfIau-32" value="status VARCHAR(10), NOT NULL" style="shape=partialRectangle;connectable=0;fillColor=none;top=0;left=0;bottom=0;right=0;align=left;spacingLeft=6;overflow=hidden;whiteSpace=wrap;html=1;" parent="Nw93bE2P9whaHvDUfIau-30" vertex="1">
          <mxGeometry x="30" width="280" height="30" as="geometry">
            <mxRectangle width="280" height="30" as="alternateBounds" />
          </mxGeometry>
        </mxCell>
        <mxCell id="Nw93bE2P9whaHvDUfIau-33" value="" style="shape=tableRow;horizontal=0;startSize=0;swimlaneHead=0;swimlaneBody=0;fillColor=none;collapsible=0;dropTarget=0;points=[[0,0.5],[1,0.5]];portConstraint=eastwest;top=0;left=0;right=0;bottom=0;" parent="Nw93bE2P9whaHvDUfIau-20" vertex="1">
          <mxGeometry y="140" width="310" height="30" as="geometry" />
        </mxCell>
        <mxCell id="Nw93bE2P9whaHvDUfIau-34" value="" style="shape=partialRectangle;connectable=0;fillColor=none;top=0;left=0;bottom=0;right=0;editable=1;overflow=hidden;whiteSpace=wrap;html=1;" parent="Nw93bE2P9whaHvDUfIau-33" vertex="1">
          <mxGeometry width="30" height="30" as="geometry">
            <mxRectangle width="30" height="30" as="alternateBounds" />
          </mxGeometry>
        </mxCell>
        <mxCell id="Nw93bE2P9whaHvDUfIau-35" value="start_date DATE" style="shape=partialRectangle;connectable=0;fillColor=none;top=0;left=0;bottom=0;right=0;align=left;spacingLeft=6;overflow=hidden;whiteSpace=wrap;html=1;" parent="Nw93bE2P9whaHvDUfIau-33" vertex="1">
          <mxGeometry x="30" width="280" height="30" as="geometry">
            <mxRectangle width="280" height="30" as="alternateBounds" />
          </mxGeometry>
        </mxCell>
        <mxCell id="Nw93bE2P9whaHvDUfIau-36" value="" style="shape=tableRow;horizontal=0;startSize=0;swimlaneHead=0;swimlaneBody=0;fillColor=none;collapsible=0;dropTarget=0;points=[[0,0.5],[1,0.5]];portConstraint=eastwest;top=0;left=0;right=0;bottom=0;" parent="Nw93bE2P9whaHvDUfIau-20" vertex="1">
          <mxGeometry y="170" width="310" height="30" as="geometry" />
        </mxCell>
        <mxCell id="Nw93bE2P9whaHvDUfIau-37" value="" style="shape=partialRectangle;connectable=0;fillColor=none;top=0;left=0;bottom=0;right=0;editable=1;overflow=hidden;whiteSpace=wrap;html=1;" parent="Nw93bE2P9whaHvDUfIau-36" vertex="1">
          <mxGeometry width="30" height="30" as="geometry">
            <mxRectangle width="30" height="30" as="alternateBounds" />
          </mxGeometry>
        </mxCell>
        <mxCell id="Nw93bE2P9whaHvDUfIau-38" value="due_date DATE" style="shape=partialRectangle;connectable=0;fillColor=none;top=0;left=0;bottom=0;right=0;align=left;spacingLeft=6;overflow=hidden;whiteSpace=wrap;html=1;" parent="Nw93bE2P9whaHvDUfIau-36" vertex="1">
          <mxGeometry x="30" width="280" height="30" as="geometry">
            <mxRectangle width="280" height="30" as="alternateBounds" />
          </mxGeometry>
        </mxCell>
        <mxCell id="Nw93bE2P9whaHvDUfIau-39" value="" style="shape=tableRow;horizontal=0;startSize=0;swimlaneHead=0;swimlaneBody=0;fillColor=none;collapsible=0;dropTarget=0;points=[[0,0.5],[1,0.5]];portConstraint=eastwest;top=0;left=0;right=0;bottom=0;" parent="Nw93bE2P9whaHvDUfIau-20" vertex="1">
          <mxGeometry y="200" width="310" height="30" as="geometry" />
        </mxCell>
        <mxCell id="Nw93bE2P9whaHvDUfIau-40" value="" style="shape=partialRectangle;connectable=0;fillColor=none;top=0;left=0;bottom=0;right=0;editable=1;overflow=hidden;whiteSpace=wrap;html=1;" parent="Nw93bE2P9whaHvDUfIau-39" vertex="1">
          <mxGeometry width="30" height="30" as="geometry">
            <mxRectangle width="30" height="30" as="alternateBounds" />
          </mxGeometry>
        </mxCell>
        <mxCell id="Nw93bE2P9whaHvDUfIau-41" value="end_date DATE" style="shape=partialRectangle;connectable=0;fillColor=none;top=0;left=0;bottom=0;right=0;align=left;spacingLeft=6;overflow=hidden;whiteSpace=wrap;html=1;" parent="Nw93bE2P9whaHvDUfIau-39" vertex="1">
          <mxGeometry x="30" width="280" height="30" as="geometry">
            <mxRectangle width="280" height="30" as="alternateBounds" />
          </mxGeometry>
        </mxCell>
        <mxCell id="Nw93bE2P9whaHvDUfIau-42" value="books" style="shape=table;startSize=30;container=1;collapsible=1;childLayout=tableLayout;fixedRows=1;rowLines=0;fontStyle=1;align=center;resizeLast=1;html=1;" parent="1" vertex="1">
          <mxGeometry x="-1140" y="370" width="310" height="200" as="geometry" />
        </mxCell>
        <mxCell id="Nw93bE2P9whaHvDUfIau-43" value="" style="shape=tableRow;horizontal=0;startSize=0;swimlaneHead=0;swimlaneBody=0;fillColor=none;collapsible=0;dropTarget=0;points=[[0,0.5],[1,0.5]];portConstraint=eastwest;top=0;left=0;right=0;bottom=1;" parent="Nw93bE2P9whaHvDUfIau-42" vertex="1">
          <mxGeometry y="30" width="310" height="30" as="geometry" />
        </mxCell>
        <mxCell id="Nw93bE2P9whaHvDUfIau-44" value="PK" style="shape=partialRectangle;connectable=0;fillColor=none;top=0;left=0;bottom=0;right=0;fontStyle=1;overflow=hidden;whiteSpace=wrap;html=1;" parent="Nw93bE2P9whaHvDUfIau-43" vertex="1">
          <mxGeometry width="30" height="30" as="geometry">
            <mxRectangle width="30" height="30" as="alternateBounds" />
          </mxGeometry>
        </mxCell>
        <mxCell id="Nw93bE2P9whaHvDUfIau-45" value="id INT, AI" style="shape=partialRectangle;connectable=0;fillColor=none;top=0;left=0;bottom=0;right=0;align=left;spacingLeft=6;fontStyle=5;overflow=hidden;whiteSpace=wrap;html=1;" parent="Nw93bE2P9whaHvDUfIau-43" vertex="1">
          <mxGeometry x="30" width="280" height="30" as="geometry">
            <mxRectangle width="280" height="30" as="alternateBounds" />
          </mxGeometry>
        </mxCell>
        <mxCell id="Nw93bE2P9whaHvDUfIau-46" value="" style="shape=tableRow;horizontal=0;startSize=0;swimlaneHead=0;swimlaneBody=0;fillColor=none;collapsible=0;dropTarget=0;points=[[0,0.5],[1,0.5]];portConstraint=eastwest;top=0;left=0;right=0;bottom=0;" parent="Nw93bE2P9whaHvDUfIau-42" vertex="1">
          <mxGeometry y="60" width="310" height="20" as="geometry" />
        </mxCell>
        <mxCell id="Nw93bE2P9whaHvDUfIau-47" value="" style="shape=partialRectangle;connectable=0;fillColor=none;top=0;left=0;bottom=0;right=0;editable=1;overflow=hidden;whiteSpace=wrap;html=1;" parent="Nw93bE2P9whaHvDUfIau-46" vertex="1">
          <mxGeometry width="30" height="20" as="geometry">
            <mxRectangle width="30" height="20" as="alternateBounds" />
          </mxGeometry>
        </mxCell>
        <mxCell id="Nw93bE2P9whaHvDUfIau-48" value="isbn VARCHAR(13), NOT NULL, UNIQUE" style="shape=partialRectangle;connectable=0;fillColor=none;top=0;left=0;bottom=0;right=0;align=left;spacingLeft=6;overflow=hidden;whiteSpace=wrap;html=1;" parent="Nw93bE2P9whaHvDUfIau-46" vertex="1">
          <mxGeometry x="30" width="280" height="20" as="geometry">
            <mxRectangle width="280" height="20" as="alternateBounds" />
          </mxGeometry>
        </mxCell>
        <mxCell id="Nw93bE2P9whaHvDUfIau-49" value="" style="shape=tableRow;horizontal=0;startSize=0;swimlaneHead=0;swimlaneBody=0;fillColor=none;collapsible=0;dropTarget=0;points=[[0,0.5],[1,0.5]];portConstraint=eastwest;top=0;left=0;right=0;bottom=0;" parent="Nw93bE2P9whaHvDUfIau-42" vertex="1">
          <mxGeometry y="80" width="310" height="30" as="geometry" />
        </mxCell>
        <mxCell id="Nw93bE2P9whaHvDUfIau-50" value="" style="shape=partialRectangle;connectable=0;fillColor=none;top=0;left=0;bottom=0;right=0;editable=1;overflow=hidden;whiteSpace=wrap;html=1;" parent="Nw93bE2P9whaHvDUfIau-49" vertex="1">
          <mxGeometry width="30" height="30" as="geometry">
            <mxRectangle width="30" height="30" as="alternateBounds" />
          </mxGeometry>
        </mxCell>
        <mxCell id="Nw93bE2P9whaHvDUfIau-51" value="title VARCHAR(255), NOT NULL" style="shape=partialRectangle;connectable=0;fillColor=none;top=0;left=0;bottom=0;right=0;align=left;spacingLeft=6;overflow=hidden;whiteSpace=wrap;html=1;" parent="Nw93bE2P9whaHvDUfIau-49" vertex="1">
          <mxGeometry x="30" width="280" height="30" as="geometry">
            <mxRectangle width="280" height="30" as="alternateBounds" />
          </mxGeometry>
        </mxCell>
        <mxCell id="Nw93bE2P9whaHvDUfIau-52" value="" style="shape=tableRow;horizontal=0;startSize=0;swimlaneHead=0;swimlaneBody=0;fillColor=none;collapsible=0;dropTarget=0;points=[[0,0.5],[1,0.5]];portConstraint=eastwest;top=0;left=0;right=0;bottom=0;" parent="Nw93bE2P9whaHvDUfIau-42" vertex="1">
          <mxGeometry y="110" width="310" height="30" as="geometry" />
        </mxCell>
        <mxCell id="Nw93bE2P9whaHvDUfIau-53" value="" style="shape=partialRectangle;connectable=0;fillColor=none;top=0;left=0;bottom=0;right=0;editable=1;overflow=hidden;whiteSpace=wrap;html=1;" parent="Nw93bE2P9whaHvDUfIau-52" vertex="1">
          <mxGeometry width="30" height="30" as="geometry">
            <mxRectangle width="30" height="30" as="alternateBounds" />
          </mxGeometry>
        </mxCell>
        <mxCell id="Nw93bE2P9whaHvDUfIau-54" value="author VARCHAR(255), NOT NULL" style="shape=partialRectangle;connectable=0;fillColor=none;top=0;left=0;bottom=0;right=0;align=left;spacingLeft=6;overflow=hidden;whiteSpace=wrap;html=1;" parent="Nw93bE2P9whaHvDUfIau-52" vertex="1">
          <mxGeometry x="30" width="280" height="30" as="geometry">
            <mxRectangle width="280" height="30" as="alternateBounds" />
          </mxGeometry>
        </mxCell>
        <mxCell id="Nw93bE2P9whaHvDUfIau-55" value="" style="shape=tableRow;horizontal=0;startSize=0;swimlaneHead=0;swimlaneBody=0;fillColor=none;collapsible=0;dropTarget=0;points=[[0,0.5],[1,0.5]];portConstraint=eastwest;top=0;left=0;right=0;bottom=0;" parent="Nw93bE2P9whaHvDUfIau-42" vertex="1">
          <mxGeometry y="140" width="310" height="30" as="geometry" />
        </mxCell>
        <mxCell id="Nw93bE2P9whaHvDUfIau-56" value="" style="shape=partialRectangle;connectable=0;fillColor=none;top=0;left=0;bottom=0;right=0;editable=1;overflow=hidden;whiteSpace=wrap;html=1;" parent="Nw93bE2P9whaHvDUfIau-55" vertex="1">
          <mxGeometry width="30" height="30" as="geometry">
            <mxRectangle width="30" height="30" as="alternateBounds" />
          </mxGeometry>
        </mxCell>
        <mxCell id="Nw93bE2P9whaHvDUfIau-57" value="category VARCHAR(50), NOT NULL" style="shape=partialRectangle;connectable=0;fillColor=none;top=0;left=0;bottom=0;right=0;align=left;spacingLeft=6;overflow=hidden;whiteSpace=wrap;html=1;" parent="Nw93bE2P9whaHvDUfIau-55" vertex="1">
          <mxGeometry x="30" width="280" height="30" as="geometry">
            <mxRectangle width="280" height="30" as="alternateBounds" />
          </mxGeometry>
        </mxCell>
        <mxCell id="Nw93bE2P9whaHvDUfIau-58" value="" style="shape=tableRow;horizontal=0;startSize=0;swimlaneHead=0;swimlaneBody=0;fillColor=none;collapsible=0;dropTarget=0;points=[[0,0.5],[1,0.5]];portConstraint=eastwest;top=0;left=0;right=0;bottom=0;" parent="Nw93bE2P9whaHvDUfIau-42" vertex="1">
          <mxGeometry y="170" width="310" height="30" as="geometry" />
        </mxCell>
        <mxCell id="Nw93bE2P9whaHvDUfIau-59" value="" style="shape=partialRectangle;connectable=0;fillColor=none;top=0;left=0;bottom=0;right=0;editable=1;overflow=hidden;whiteSpace=wrap;html=1;" parent="Nw93bE2P9whaHvDUfIau-58" vertex="1">
          <mxGeometry width="30" height="30" as="geometry">
            <mxRectangle width="30" height="30" as="alternateBounds" />
          </mxGeometry>
        </mxCell>
        <mxCell id="Nw93bE2P9whaHvDUfIau-60" value="rental_cost DECIMAL(15, 2), NOT NULL" style="shape=partialRectangle;connectable=0;fillColor=none;top=0;left=0;bottom=0;right=0;align=left;spacingLeft=6;overflow=hidden;whiteSpace=wrap;html=1;" parent="Nw93bE2P9whaHvDUfIau-58" vertex="1">
          <mxGeometry x="30" width="280" height="30" as="geometry">
            <mxRectangle width="280" height="30" as="alternateBounds" />
          </mxGeometry>
        </mxCell>
        <mxCell id="Nw93bE2P9whaHvDUfIau-64" value="book_copies" style="shape=table;startSize=30;container=1;collapsible=1;childLayout=tableLayout;fixedRows=1;rowLines=0;fontStyle=1;align=center;resizeLast=1;html=1;" parent="1" vertex="1">
          <mxGeometry x="-740" y="430" width="310" height="170" as="geometry" />
        </mxCell>
        <mxCell id="Nw93bE2P9whaHvDUfIau-65" value="" style="shape=tableRow;horizontal=0;startSize=0;swimlaneHead=0;swimlaneBody=0;fillColor=none;collapsible=0;dropTarget=0;points=[[0,0.5],[1,0.5]];portConstraint=eastwest;top=0;left=0;right=0;bottom=1;" parent="Nw93bE2P9whaHvDUfIau-64" vertex="1">
          <mxGeometry y="30" width="310" height="30" as="geometry" />
        </mxCell>
        <mxCell id="Nw93bE2P9whaHvDUfIau-66" value="PK" style="shape=partialRectangle;connectable=0;fillColor=none;top=0;left=0;bottom=0;right=0;fontStyle=1;overflow=hidden;whiteSpace=wrap;html=1;" parent="Nw93bE2P9whaHvDUfIau-65" vertex="1">
          <mxGeometry width="30" height="30" as="geometry">
            <mxRectangle width="30" height="30" as="alternateBounds" />
          </mxGeometry>
        </mxCell>
        <mxCell id="Nw93bE2P9whaHvDUfIau-67" value="id INT, AI" style="shape=partialRectangle;connectable=0;fillColor=none;top=0;left=0;bottom=0;right=0;align=left;spacingLeft=6;fontStyle=5;overflow=hidden;whiteSpace=wrap;html=1;" parent="Nw93bE2P9whaHvDUfIau-65" vertex="1">
          <mxGeometry x="30" width="280" height="30" as="geometry">
            <mxRectangle width="280" height="30" as="alternateBounds" />
          </mxGeometry>
        </mxCell>
        <mxCell id="Nw93bE2P9whaHvDUfIau-68" value="" style="shape=tableRow;horizontal=0;startSize=0;swimlaneHead=0;swimlaneBody=0;fillColor=none;collapsible=0;dropTarget=0;points=[[0,0.5],[1,0.5]];portConstraint=eastwest;top=0;left=0;right=0;bottom=0;" parent="Nw93bE2P9whaHvDUfIau-64" vertex="1">
          <mxGeometry y="60" width="310" height="20" as="geometry" />
        </mxCell>
        <mxCell id="Nw93bE2P9whaHvDUfIau-69" value="" style="shape=partialRectangle;connectable=0;fillColor=none;top=0;left=0;bottom=0;right=0;editable=1;overflow=hidden;whiteSpace=wrap;html=1;" parent="Nw93bE2P9whaHvDUfIau-68" vertex="1">
          <mxGeometry width="30" height="20" as="geometry">
            <mxRectangle width="30" height="20" as="alternateBounds" />
          </mxGeometry>
        </mxCell>
        <mxCell id="Nw93bE2P9whaHvDUfIau-70" value="book_id INT, FK" style="shape=partialRectangle;connectable=0;fillColor=none;top=0;left=0;bottom=0;right=0;align=left;spacingLeft=6;overflow=hidden;whiteSpace=wrap;html=1;" parent="Nw93bE2P9whaHvDUfIau-68" vertex="1">
          <mxGeometry x="30" width="280" height="20" as="geometry">
            <mxRectangle width="280" height="20" as="alternateBounds" />
          </mxGeometry>
        </mxCell>
        <mxCell id="Nw93bE2P9whaHvDUfIau-74" value="" style="shape=tableRow;horizontal=0;startSize=0;swimlaneHead=0;swimlaneBody=0;fillColor=none;collapsible=0;dropTarget=0;points=[[0,0.5],[1,0.5]];portConstraint=eastwest;top=0;left=0;right=0;bottom=0;" parent="Nw93bE2P9whaHvDUfIau-64" vertex="1">
          <mxGeometry y="80" width="310" height="30" as="geometry" />
        </mxCell>
        <mxCell id="Nw93bE2P9whaHvDUfIau-75" value="" style="shape=partialRectangle;connectable=0;fillColor=none;top=0;left=0;bottom=0;right=0;editable=1;overflow=hidden;whiteSpace=wrap;html=1;" parent="Nw93bE2P9whaHvDUfIau-74" vertex="1">
          <mxGeometry width="30" height="30" as="geometry">
            <mxRectangle width="30" height="30" as="alternateBounds" />
          </mxGeometry>
        </mxCell>
        <mxCell id="Nw93bE2P9whaHvDUfIau-76" value="copy_number INT, NOT NULL" style="shape=partialRectangle;connectable=0;fillColor=none;top=0;left=0;bottom=0;right=0;align=left;spacingLeft=6;overflow=hidden;whiteSpace=wrap;html=1;" parent="Nw93bE2P9whaHvDUfIau-74" vertex="1">
          <mxGeometry x="30" width="280" height="30" as="geometry">
            <mxRectangle width="280" height="30" as="alternateBounds" />
          </mxGeometry>
        </mxCell>
        <mxCell id="Nw93bE2P9whaHvDUfIau-77" value="" style="shape=tableRow;horizontal=0;startSize=0;swimlaneHead=0;swimlaneBody=0;fillColor=none;collapsible=0;dropTarget=0;points=[[0,0.5],[1,0.5]];portConstraint=eastwest;top=0;left=0;right=0;bottom=0;" parent="Nw93bE2P9whaHvDUfIau-64" vertex="1">
          <mxGeometry y="110" width="310" height="30" as="geometry" />
        </mxCell>
        <mxCell id="Nw93bE2P9whaHvDUfIau-78" value="" style="shape=partialRectangle;connectable=0;fillColor=none;top=0;left=0;bottom=0;right=0;editable=1;overflow=hidden;whiteSpace=wrap;html=1;" parent="Nw93bE2P9whaHvDUfIau-77" vertex="1">
          <mxGeometry width="30" height="30" as="geometry">
            <mxRectangle width="30" height="30" as="alternateBounds" />
          </mxGeometry>
        </mxCell>
        <mxCell id="Nw93bE2P9whaHvDUfIau-79" value="status VARCHAR(10), NOT NULL" style="shape=partialRectangle;connectable=0;fillColor=none;top=0;left=0;bottom=0;right=0;align=left;spacingLeft=6;overflow=hidden;whiteSpace=wrap;html=1;" parent="Nw93bE2P9whaHvDUfIau-77" vertex="1">
          <mxGeometry x="30" width="280" height="30" as="geometry">
            <mxRectangle width="280" height="30" as="alternateBounds" />
          </mxGeometry>
        </mxCell>
        <mxCell id="Nw93bE2P9whaHvDUfIau-80" value="" style="shape=tableRow;horizontal=0;startSize=0;swimlaneHead=0;swimlaneBody=0;fillColor=none;collapsible=0;dropTarget=0;points=[[0,0.5],[1,0.5]];portConstraint=eastwest;top=0;left=0;right=0;bottom=0;" parent="Nw93bE2P9whaHvDUfIau-64" vertex="1">
          <mxGeometry y="140" width="310" height="30" as="geometry" />
        </mxCell>
        <mxCell id="Nw93bE2P9whaHvDUfIau-81" value="" style="shape=partialRectangle;connectable=0;fillColor=none;top=0;left=0;bottom=0;right=0;editable=1;overflow=hidden;whiteSpace=wrap;html=1;" parent="Nw93bE2P9whaHvDUfIau-80" vertex="1">
          <mxGeometry width="30" height="30" as="geometry">
            <mxRectangle width="30" height="30" as="alternateBounds" />
          </mxGeometry>
        </mxCell>
        <mxCell id="Nw93bE2P9whaHvDUfIau-82" value="rental_cost DECIMAL(15, 2), NOT NULL" style="shape=partialRectangle;connectable=0;fillColor=none;top=0;left=0;bottom=0;right=0;align=left;spacingLeft=6;overflow=hidden;whiteSpace=wrap;html=1;" parent="Nw93bE2P9whaHvDUfIau-80" vertex="1">
          <mxGeometry x="30" width="280" height="30" as="geometry">
            <mxRectangle width="280" height="30" as="alternateBounds" />
          </mxGeometry>
        </mxCell>
        <mxCell id="Nw93bE2P9whaHvDUfIau-83" value="rental_histories" style="shape=table;startSize=30;container=1;collapsible=1;childLayout=tableLayout;fixedRows=1;rowLines=0;fontStyle=1;align=center;resizeLast=1;html=1;" parent="1" vertex="1">
          <mxGeometry x="-280" y="490" width="310" height="170" as="geometry" />
        </mxCell>
        <mxCell id="Nw93bE2P9whaHvDUfIau-84" value="" style="shape=tableRow;horizontal=0;startSize=0;swimlaneHead=0;swimlaneBody=0;fillColor=none;collapsible=0;dropTarget=0;points=[[0,0.5],[1,0.5]];portConstraint=eastwest;top=0;left=0;right=0;bottom=1;" parent="Nw93bE2P9whaHvDUfIau-83" vertex="1">
          <mxGeometry y="30" width="310" height="30" as="geometry" />
        </mxCell>
        <mxCell id="Nw93bE2P9whaHvDUfIau-85" value="PK" style="shape=partialRectangle;connectable=0;fillColor=none;top=0;left=0;bottom=0;right=0;fontStyle=1;overflow=hidden;whiteSpace=wrap;html=1;" parent="Nw93bE2P9whaHvDUfIau-84" vertex="1">
          <mxGeometry width="30" height="30" as="geometry">
            <mxRectangle width="30" height="30" as="alternateBounds" />
          </mxGeometry>
        </mxCell>
        <mxCell id="Nw93bE2P9whaHvDUfIau-86" value="id INT, AI" style="shape=partialRectangle;connectable=0;fillColor=none;top=0;left=0;bottom=0;right=0;align=left;spacingLeft=6;fontStyle=5;overflow=hidden;whiteSpace=wrap;html=1;" parent="Nw93bE2P9whaHvDUfIau-84" vertex="1">
          <mxGeometry x="30" width="280" height="30" as="geometry">
            <mxRectangle width="280" height="30" as="alternateBounds" />
          </mxGeometry>
        </mxCell>
        <mxCell id="Nw93bE2P9whaHvDUfIau-87" value="" style="shape=tableRow;horizontal=0;startSize=0;swimlaneHead=0;swimlaneBody=0;fillColor=none;collapsible=0;dropTarget=0;points=[[0,0.5],[1,0.5]];portConstraint=eastwest;top=0;left=0;right=0;bottom=0;" parent="Nw93bE2P9whaHvDUfIau-83" vertex="1">
          <mxGeometry y="60" width="310" height="20" as="geometry" />
        </mxCell>
        <mxCell id="Nw93bE2P9whaHvDUfIau-88" value="" style="shape=partialRectangle;connectable=0;fillColor=none;top=0;left=0;bottom=0;right=0;editable=1;overflow=hidden;whiteSpace=wrap;html=1;" parent="Nw93bE2P9whaHvDUfIau-87" vertex="1">
          <mxGeometry width="30" height="20" as="geometry">
            <mxRectangle width="30" height="20" as="alternateBounds" />
          </mxGeometry>
        </mxCell>
        <mxCell id="Nw93bE2P9whaHvDUfIau-89" value="user_id INT, FK" style="shape=partialRectangle;connectable=0;fillColor=none;top=0;left=0;bottom=0;right=0;align=left;spacingLeft=6;overflow=hidden;whiteSpace=wrap;html=1;" parent="Nw93bE2P9whaHvDUfIau-87" vertex="1">
          <mxGeometry x="30" width="280" height="20" as="geometry">
            <mxRectangle width="280" height="20" as="alternateBounds" />
          </mxGeometry>
        </mxCell>
        <mxCell id="Nw93bE2P9whaHvDUfIau-90" value="" style="shape=tableRow;horizontal=0;startSize=0;swimlaneHead=0;swimlaneBody=0;fillColor=none;collapsible=0;dropTarget=0;points=[[0,0.5],[1,0.5]];portConstraint=eastwest;top=0;left=0;right=0;bottom=0;" parent="Nw93bE2P9whaHvDUfIau-83" vertex="1">
          <mxGeometry y="80" width="310" height="30" as="geometry" />
        </mxCell>
        <mxCell id="Nw93bE2P9whaHvDUfIau-91" value="" style="shape=partialRectangle;connectable=0;fillColor=none;top=0;left=0;bottom=0;right=0;editable=1;overflow=hidden;whiteSpace=wrap;html=1;" parent="Nw93bE2P9whaHvDUfIau-90" vertex="1">
          <mxGeometry width="30" height="30" as="geometry">
            <mxRectangle width="30" height="30" as="alternateBounds" />
          </mxGeometry>
        </mxCell>
        <mxCell id="Nw93bE2P9whaHvDUfIau-92" value="book_copy_id INT, FK" style="shape=partialRectangle;connectable=0;fillColor=none;top=0;left=0;bottom=0;right=0;align=left;spacingLeft=6;overflow=hidden;whiteSpace=wrap;html=1;" parent="Nw93bE2P9whaHvDUfIau-90" vertex="1">
          <mxGeometry x="30" width="280" height="30" as="geometry">
            <mxRectangle width="280" height="30" as="alternateBounds" />
          </mxGeometry>
        </mxCell>
        <mxCell id="Nw93bE2P9whaHvDUfIau-93" value="" style="shape=tableRow;horizontal=0;startSize=0;swimlaneHead=0;swimlaneBody=0;fillColor=none;collapsible=0;dropTarget=0;points=[[0,0.5],[1,0.5]];portConstraint=eastwest;top=0;left=0;right=0;bottom=0;" parent="Nw93bE2P9whaHvDUfIau-83" vertex="1">
          <mxGeometry y="110" width="310" height="30" as="geometry" />
        </mxCell>
        <mxCell id="Nw93bE2P9whaHvDUfIau-94" value="" style="shape=partialRectangle;connectable=0;fillColor=none;top=0;left=0;bottom=0;right=0;editable=1;overflow=hidden;whiteSpace=wrap;html=1;" parent="Nw93bE2P9whaHvDUfIau-93" vertex="1">
          <mxGeometry width="30" height="30" as="geometry">
            <mxRectangle width="30" height="30" as="alternateBounds" />
          </mxGeometry>
        </mxCell>
        <mxCell id="Nw93bE2P9whaHvDUfIau-95" value="type VARCHAR(10), NOT NULL" style="shape=partialRectangle;connectable=0;fillColor=none;top=0;left=0;bottom=0;right=0;align=left;spacingLeft=6;overflow=hidden;whiteSpace=wrap;html=1;" parent="Nw93bE2P9whaHvDUfIau-93" vertex="1">
          <mxGeometry x="30" width="280" height="30" as="geometry">
            <mxRectangle width="280" height="30" as="alternateBounds" />
          </mxGeometry>
        </mxCell>
        <mxCell id="Nw93bE2P9whaHvDUfIau-96" value="" style="shape=tableRow;horizontal=0;startSize=0;swimlaneHead=0;swimlaneBody=0;fillColor=none;collapsible=0;dropTarget=0;points=[[0,0.5],[1,0.5]];portConstraint=eastwest;top=0;left=0;right=0;bottom=0;" parent="Nw93bE2P9whaHvDUfIau-83" vertex="1">
          <mxGeometry y="140" width="310" height="30" as="geometry" />
        </mxCell>
        <mxCell id="Nw93bE2P9whaHvDUfIau-97" value="" style="shape=partialRectangle;connectable=0;fillColor=none;top=0;left=0;bottom=0;right=0;editable=1;overflow=hidden;whiteSpace=wrap;html=1;" parent="Nw93bE2P9whaHvDUfIau-96" vertex="1">
          <mxGeometry width="30" height="30" as="geometry">
            <mxRectangle width="30" height="30" as="alternateBounds" />
          </mxGeometry>
        </mxCell>
        <mxCell id="Nw93bE2P9whaHvDUfIau-98" value="created_at DATE" style="shape=partialRectangle;connectable=0;fillColor=none;top=0;left=0;bottom=0;right=0;align=left;spacingLeft=6;overflow=hidden;whiteSpace=wrap;html=1;" parent="Nw93bE2P9whaHvDUfIau-96" vertex="1">
          <mxGeometry x="30" width="280" height="30" as="geometry">
            <mxRectangle width="280" height="30" as="alternateBounds" />
          </mxGeometry>
        </mxCell>
        <mxCell id="Nw93bE2P9whaHvDUfIau-105" value="" style="edgeStyle=entityRelationEdgeStyle;fontSize=12;html=1;endArrow=ERoneToMany;startArrow=ERzeroToOne;rounded=0;exitX=1;exitY=0.5;exitDx=0;exitDy=0;entryX=0;entryY=0.5;entryDx=0;entryDy=0;" parent="1" source="Nw93bE2P9whaHvDUfIau-43" target="Nw93bE2P9whaHvDUfIau-68" edge="1">
          <mxGeometry width="100" height="100" relative="1" as="geometry">
            <mxPoint x="-710" y="780" as="sourcePoint" />
            <mxPoint x="-610" y="680" as="targetPoint" />
            <Array as="points">
              <mxPoint x="-820" y="430" />
            </Array>
          </mxGeometry>
        </mxCell>
        <mxCell id="Nw93bE2P9whaHvDUfIau-106" value="" style="edgeStyle=entityRelationEdgeStyle;fontSize=12;html=1;endArrow=ERoneToMany;startArrow=ERzeroToOne;rounded=0;exitX=1;exitY=0.336;exitDx=0;exitDy=0;entryX=0.003;entryY=0.802;entryDx=0;entryDy=0;entryPerimeter=0;exitPerimeter=0;" parent="1" source="Nw93bE2P9whaHvDUfIau-2" target="Nw93bE2P9whaHvDUfIau-24" edge="1">
          <mxGeometry width="100" height="100" relative="1" as="geometry">
            <mxPoint x="-360" y="650" as="sourcePoint" />
            <mxPoint x="-270" y="675" as="targetPoint" />
            <Array as="points">
              <mxPoint x="-350" y="605" />
            </Array>
          </mxGeometry>
        </mxCell>
        <mxCell id="Nw93bE2P9whaHvDUfIau-107" value="" style="edgeStyle=entityRelationEdgeStyle;fontSize=12;html=1;endArrow=ERoneToMany;startArrow=ERzeroToOne;rounded=0;entryX=0;entryY=0.5;entryDx=0;entryDy=0;exitX=1.002;exitY=0.858;exitDx=0;exitDy=0;exitPerimeter=0;" parent="1" source="Nw93bE2P9whaHvDUfIau-2" target="Nw93bE2P9whaHvDUfIau-87" edge="1">
          <mxGeometry width="100" height="100" relative="1" as="geometry">
            <mxPoint x="-426" y="715" as="sourcePoint" />
            <mxPoint x="-249" y="506" as="targetPoint" />
            <Array as="points">
              <mxPoint x="-340" y="615" />
            </Array>
          </mxGeometry>
        </mxCell>
        <mxCell id="Nw93bE2P9whaHvDUfIau-108" value="" style="edgeStyle=entityRelationEdgeStyle;fontSize=12;html=1;endArrow=ERoneToMany;startArrow=ERzeroToOne;rounded=0;entryX=-0.009;entryY=0.671;entryDx=0;entryDy=0;entryPerimeter=0;exitX=0.999;exitY=0.813;exitDx=0;exitDy=0;exitPerimeter=0;" parent="1" source="Nw93bE2P9whaHvDUfIau-65" target="Nw93bE2P9whaHvDUfIau-90" edge="1">
          <mxGeometry width="100" height="100" relative="1" as="geometry">
            <mxPoint x="-410" y="520" as="sourcePoint" />
            <mxPoint x="-250" y="800" as="targetPoint" />
            <Array as="points">
              <mxPoint x="-330" y="625" />
            </Array>
          </mxGeometry>
        </mxCell>
        <mxCell id="3WYPHEJGhLZHMZIEBxCE-1" value="" style="edgeStyle=entityRelationEdgeStyle;fontSize=12;html=1;endArrow=ERoneToMany;startArrow=ERzeroToOne;rounded=0;entryX=0.003;entryY=0.802;entryDx=0;entryDy=0;entryPerimeter=0;exitX=1;exitY=0.276;exitDx=0;exitDy=0;exitPerimeter=0;" edge="1" parent="1" source="Nw93bE2P9whaHvDUfIau-65">
          <mxGeometry width="100" height="100" relative="1" as="geometry">
            <mxPoint x="-420" y="470" as="sourcePoint" />
            <mxPoint x="-280" y="286" as="targetPoint" />
            <Array as="points">
              <mxPoint x="-351" y="625" />
            </Array>
          </mxGeometry>
        </mxCell>
      </root>
    </mxGraphModel>
  </diagram>
</mxfile>
